<?xml version="1.0" encoding="utf-8"?>
<!-- Generator: Adobe Illustrator 16.0.0, SVG Export Plug-In . SVG Version: 6.00 Build 0)  -->
<!DOCTYPE svg PUBLIC "-//W3C//DTD SVG 1.1//EN" "http://www.w3.org/Graphics/SVG/1.1/DTD/svg11.dtd">
<svg version="1.1" id="Layer_1" xmlns="http://www.w3.org/2000/svg" xmlns:xlink="http://www.w3.org/1999/xlink" x="0px" y="0px"
	 width="612px" height="792px" viewBox="0 0 612 792" enable-background="new 0 0 612 792" xml:space="preserve">
<path id="bg" fill="#563D7C" d="M612,600c0,56.1-45.9,102-102,102H102C45.9,702,0,656.1,0,600V192C0,135.9,45.9,90,102,90h408
	c56.1,0,102,45.9,102,102V600z"/>
<ellipse fill="none" stroke="#FFFFFF" stroke-width="40" stroke-miterlimit="10" cx="275.499" cy="317.945" rx="112.831" ry="85.321"/>
<line fill="none" stroke="#FFFFFF" stroke-width="20" stroke-miterlimit="10" x1="401.48" y1="205.053" x2="344.393" y2="259.197"/>
<path fill="none" stroke="#FFFFFF" stroke-width="40" stroke-miterlimit="10" d="M274.333,413.268l1.323,76.672
	c0,0,173.866-16.894,174.527,38.984c0.66,55.88-105.112,60.428-193.036,59.777"/>
<circle fill="none" stroke="#FFFFFF" stroke-width="20" stroke-miterlimit="10" cx="420.834" cy="184.166" r="28.5"/>
<circle fill="none" stroke="#FFFFFF" stroke-width="20" stroke-miterlimit="10" cx="227.834" cy="588.166" r="28.5"/>
</svg>
